<?xml version="1.0" standalone="no"?>
<!DOCTYPE svg PUBLIC "-//W3C//DTD SVG 20010904//EN"
 "http://www.w3.org/TR/2001/REC-SVG-20010904/DTD/svg10.dtd">
<svg version="1.0" xmlns="http://www.w3.org/2000/svg"
 width="16.000000pt" height="16.000000pt" viewBox="0 0 16.000000 16.000000"
 preserveAspectRatio="xMidYMid meet">
<metadata>
Created by potrace 1.11, written by Peter Selinger 2001-2013
</metadata>
<g transform="translate(0.000000,16.000000) scale(0.002286,-0.002286)"
fill="#000000" stroke="none">
<path d="M2015 5379 c-123 -17 -212 -45 -313 -100 -232 -124 -362 -317 -506
-755 l-47 -142 -164 2 -164 1 -19 -77 c-14 -54 -16 -78 -8 -79 6 0 79 -1 163
-1 145 -1 151 -2 147 -21 -2 -11 -12 -56 -23 -101 -11 -44 -45 -191 -76 -326
-32 -135 -70 -299 -85 -365 -16 -66 -58 -246 -94 -400 -124 -533 -257 -1060
-281 -1112 -18 -41 -31 -55 -60 -67 -44 -19 -81 -12 -101 19 -14 22 -17 30
-30 105 -28 151 -180 206 -288 104 -122 -116 -54 -314 128 -373 228 -75 483
20 667 247 114 141 194 304 248 502 34 124 212 851 246 1000 2 8 42 173 90
365 47 193 88 358 90 368 13 59 -4 55 241 53 l226 -1 24 -28 c28 -33 28 -52
-5 -187 -49 -203 -71 -296 -75 -315 -3 -11 -29 -120 -59 -241 -31 -122 -58
-238 -61 -259 -4 -20 -8 -40 -10 -44 -10 -16 -20 -103 -20 -181 -1 -107 25
-166 98 -221 57 -43 107 -60 194 -64 201 -11 372 124 522 410 65 123 97 200
205 492 52 138 108 282 125 319 49 108 98 162 134 148 18 -7 22 -101 6 -169
-5 -22 -11 -51 -14 -65 -5 -29 -59 -230 -111 -415 -20 -71 -54 -195 -75 -275
-21 -80 -53 -196 -69 -259 -17 -62 -31 -119 -31 -126 0 -10 46 -13 204 -13
l205 0 11 31 c7 18 38 109 71 202 33 94 80 229 105 300 25 72 52 148 59 170
54 168 176 425 257 541 94 137 210 222 306 226 45 1 66 -11 86 -51 25 -52 13
-109 -89 -420 -122 -373 -126 -385 -130 -401 -2 -8 -18 -69 -36 -135 -42 -157
-46 -297 -12 -361 50 -93 132 -144 239 -149 200 -10 375 120 552 409 l44 71
-8 -45 c-43 -273 47 -428 255 -436 224 -8 380 158 576 611 158 367 238 479
325 460 54 -12 136 -160 189 -340 27 -93 68 -285 76 -360 4 -33 9 -62 10 -65
9 -15 19 -227 19 -390 -1 -269 -33 -369 -165 -501 -131 -132 -244 -160 -421
-105 -115 35 -165 39 -216 16 -161 -72 -163 -281 -3 -329 101 -30 264 -5 390
59 144 73 316 226 499 444 13 15 59 75 103 134 43 59 83 112 87 117 4 6 39 60
78 120 127 198 241 413 329 619 67 159 119 312 161 476 55 217 76 454 50 577
-24 115 -80 187 -163 208 -57 15 -96 10 -143 -17 -58 -32 -75 -64 -75 -138 0
-59 6 -76 62 -190 78 -160 93 -212 93 -345 1 -205 -77 -478 -226 -794 -24 -51
-44 -97 -44 -102 0 -5 -4 -9 -10 -9 -5 0 -10 24 -11 53 -1 60 -4 100 -13 217
-11 128 -14 153 -25 217 -6 32 -13 76 -16 98 -4 22 -8 48 -11 57 -3 9 -6 25
-8 35 -13 60 -60 232 -76 277 -25 64 -88 132 -150 159 -53 24 -179 30 -255 12
-194 -44 -341 -217 -510 -600 -90 -205 -95 -216 -127 -283 -51 -104 -112 -153
-154 -124 -38 25 -49 124 -27 242 12 61 140 533 210 770 9 30 17 60 19 65 2
10 41 150 170 605 41 146 95 337 120 425 53 191 73 261 85 298 l8 28 -97 -6
c-53 -3 -124 -7 -157 -10 -33 -3 -103 -7 -155 -10 -52 -3 -124 -7 -160 -10
-36 -2 -110 -7 -165 -10 -55 -3 -103 -9 -106 -13 -8 -10 -33 -102 -28 -106 2
-2 36 -6 74 -9 118 -9 175 -31 203 -77 27 -43 23 -83 -33 -324 -2 -11 -18 -69
-35 -130 -47 -174 -211 -779 -214 -796 -2 -8 -27 -99 -55 -203 -46 -169 -57
-199 -117 -305 -142 -249 -261 -407 -325 -430 -36 -14 -66 -2 -82 31 -28 56
-24 73 126 512 107 313 143 452 153 597 12 155 -32 252 -141 310 -55 29 -69
32 -160 34 -117 3 -180 -11 -280 -62 -159 -82 -311 -247 -414 -452 -17 -34
-32 -62 -34 -62 -1 0 -2 46 0 103 2 116 -14 175 -68 240 -41 50 -81 69 -152
73 -179 8 -328 -118 -455 -389 -31 -66 -87 -206 -187 -467 -87 -226 -165 -372
-230 -428 -70 -61 -133 -66 -155 -11 -20 48 -14 101 36 300 25 101 47 191 49
200 2 9 8 33 14 55 13 47 201 810 207 840 4 21 2 21 -154 18 -86 -2 -307 -5
-490 -8 l-332 -5 6 27 c31 137 79 315 107 397 112 330 255 483 404 434 49 -16
67 -37 114 -134 45 -91 99 -161 138 -177 14 -6 46 -12 71 -14 172 -8 254 199
131 329 -96 102 -345 164 -546 136z"/>
</g>
</svg>
